PathFileType	4	(X/Y/Z)	C:/Users/opensim2020/Desktop/walking_exp_matlab/subject02_walking09_straight_03.trc	
DataRate	CameraRate	NumFrames	NumMarkers	Units	OrigDataRate	OrigDataStartFrame	OrigNumFrames	
100.00	100.00	4	42	mm	100.00	2309	262	
Frame#	Time	LFHD			RFHD			LBHD			RBHD			C7			T10			CLAV			STRN			RBAK			LSHO			LUPA			LELB			LFRM			LWRA			LWRB			LFIN			RSHO			RUPA			RELB			RFRM			RWRA			RWRB			RFIN			LASI			RASI			LPSI			RPSI			LTHI			LKNE			LTIB			LANK			LHEE			LTOE			RTHI			RKNE			RTIB			RANK			RHEE			RTOE			*39			*40			*41			
		X1	Y1	Z1	X2	Y2	Z2	X3	Y3	Z3	X4	Y4	Z4	X5	Y5	Z5	X6	Y6	Z6	X7	Y7	Z7	X8	Y8	Z8	X9	Y9	Z9	X10	Y10	Z10	X11	Y11	Z11	X12	Y12	Z12	X13	Y13	Z13	X14	Y14	Z14	X15	Y15	Z15	X16	Y16	Z16	X17	Y17	Z17	X18	Y18	Z18	X19	Y19	Z19	X20	Y20	Z20	X21	Y21	Z21	X22	Y22	Z22	X23	Y23	Z23	X24	Y24	Z24	X25	Y25	Z25	X26	Y26	Z26	X27	Y27	Z27	X28	Y28	Z28	X29	Y29	Z29	X30	Y30	Z30	X31	Y31	Z31	X32	Y32	Z32	X33	Y33	Z33	X34	Y34	Z34	X35	Y35	Z35	X36	Y36	Z36	X37	Y37	Z37	X38	Y38	Z38	X39	Y39	Z39	X40	Y40	Z40	X41	Y41	Z41	X42	Y42	Z42	

132	1.310	-1063.86768	-48.55635	1759.73962	-921.82782	-64.45289	1740.82385	-1088.56653	-147.77936	1648.44495	-949.75415	-174.35469	1624.70166	-1013.09027	-192.21483	1526.13098	-1003.89215	-254.72269	1255.78162	-1022.16193	-54.45816	1456.60583	-1016.69543	-8.13382	1280.81799	-947.93561	-254.36258	1356.76990	-1192.25781	-114.36852	1501.04395	-1278.99963	-96.04374	1302.47327	-1292.50476	-66.48604	1162.86707	-1296.91003	-12.84921	1041.09814	-1250.80994	76.48873	944.04797	-1290.01917	38.13192	929.40155	-1288.39319	79.56154	877.70941	-825.90802	-113.04242	1489.97510	-744.22351	-155.80161	1302.06702	-725.85229	-153.10329	1155.22839	-704.47235	-119.59325	1039.35278	-718.48804	-59.40331	917.64618	-692.75751	-109.95404	909.55402	-686.12000	-68.48665	850.31219	-1149.40796	-39.90496	985.77063	-893.37885	-21.90401	978.90955	-1053.39600	-243.55759	1033.36267	-938.83984	-241.62883	1033.10730	-1175.39160	-122.36162	672.35315	-1131.80615	-164.74571	473.54495	-1116.85486	-233.66679	290.62082	-1066.48706	-242.06058	70.10674	-1011.96362	-275.38745	44.09483	-1091.68591	-87.89126	33.31945	-797.81604	-32.88583	687.16254	-822.54584	28.69077	487.31033	-813.69415	-1.25186	302.56360	-840.81860	-2.23549	108.86823	-901.53937	-20.89762	49.54059	-805.12683	146.66890	61.76037	-991.67865	-177.49379	1789.26892	-3360.31372	2845.22217	1034.10242			 
133	1.320	-1063.87195	-40.95692	1758.96875	-921.57709	-57.03922	1740.05896	-1089.26685	-140.33421	1647.88037	-950.28326	-167.28017	1624.00842	-1013.30304	-184.84070	1525.51770	-1003.71753	-247.66180	1255.13074	-1022.43378	-47.18130	1455.76270	-1016.99298	-1.08310	1279.91272	-947.89728	-247.16093	1356.19910	-1192.44446	-107.16829	1500.38220	-1278.89148	-88.19199	1301.67078	-1292.48206	-57.08831	1162.44714	-1296.33765	-1.18191	1041.61499	-1249.21643	89.87650	946.69568	-1288.33569	51.84133	930.90021	-1286.17981	94.31978	879.98889	-826.14368	-105.37411	1489.22656	-744.51819	-148.22922	1301.40955	-726.23578	-145.97614	1154.32385	-704.85693	-112.59416	1038.57434	-719.08551	-52.51664	916.84277	-693.36035	-103.35036	908.65027	-686.56836	-61.47084	849.66919	-1149.64563	-33.58395	985.21466	-893.76526	-14.65001	978.17291	-1053.01721	-236.91663	1032.63000	-938.46246	-234.48686	1032.30334	-1175.34583	-117.68922	671.82440	-1131.79175	-161.33293	473.20737	-1116.70142	-231.73528	290.82648	-1066.33350	-241.77525	70.34480	-1011.69666	-275.17731	44.29693	-1091.62659	-87.96008	33.15613	-798.86487	-25.35241	686.05127	-824.86639	37.65086	486.56998	-814.35211	15.52598	300.79797	-840.27875	21.78920	107.10866	-900.60883	4.23495	47.03790	-807.41370	173.27065	65.49327	-991.99286	-170.06422	1788.44238	-3360.15747	2845.15186	1034.16077			 
134	1.330	-1063.81592	-33.32589	1758.13147	-921.47614	-49.72533	1739.20764	-1088.88953	-132.54337	1646.90625	-950.45392	-159.81308	1623.16235	-1013.32208	-177.42110	1524.76611	-1003.37628	-240.57759	1254.46716	-1022.57501	-39.91713	1454.91125	-1017.22253	6.12424	1278.94995	-947.70685	-239.72534	1355.52173	-1192.42798	-100.07300	1499.46875	-1278.97949	-80.30492	1301.13367	-1292.46887	-47.86402	1161.97937	-1295.30701	10.18901	1041.94983	-1247.59314	102.93653	949.09991	-1286.61792	65.23161	932.34863	-1284.26953	108.75091	882.49866	-826.26123	-97.60919	1488.46753	-744.49286	-140.66042	1300.59985	-726.36462	-138.53369	1153.67651	-705.15930	-105.55893	1037.69421	-719.47510	-45.78780	915.88800	-693.69714	-96.48125	907.65930	-686.90491	-54.63194	848.54260	-1149.96033	-27.23423	984.57483	-894.17035	-7.15934	977.41394	-1052.46143	-230.15477	1031.88806	-938.04248	-227.12999	1031.41455	-1175.42249	-112.91985	671.22565	-1131.71265	-157.80684	472.81088	-1116.55835	-229.71672	291.05045	-1066.15820	-241.48476	70.61294	-1011.50958	-275.03888	44.71461	-1091.70483	-87.86239	33.11071	-799.83704	-17.91951	684.75610	-827.05872	46.23838	485.85474	-815.05792	31.93089	299.42896	-840.02448	45.64515	105.78926	-899.59125	29.08982	45.04536	-809.99530	199.19043	69.78799	-992.03235	-162.46477	1787.74280	-3360.29150	2845.19580	1034.25415			 
135	1.340	-1063.70667	-25.71386	1757.25183	-921.74817	-42.14889	1738.45947	-1089.47656	-125.01525	1646.22070	-950.20892	-151.84508	1622.12781	-1013.22516	-170.02237	1523.95288	-1003.01086	-233.28516	1253.67993	-1022.62274	-32.56807	1453.98694	-1017.42157	13.38093	1277.97717	-947.51263	-232.26611	1354.68213	-1192.42859	-92.85494	1498.68176	-1278.69519	-72.51420	1300.22559	-1292.41394	-38.90475	1161.48303	-1294.43481	21.23887	1042.25427	-1245.94800	115.61061	951.45319	-1284.90161	78.27695	933.72217	-1282.22083	122.78556	884.79175	-826.26593	-89.94315	1487.52380	-744.21716	-132.86961	1299.62537	-726.61438	-130.94958	1152.73254	-705.51575	-98.54873	1036.60547	-719.78308	-38.95314	914.63678	-693.92383	-89.52081	906.78979	-687.35437	-48.05061	847.29498	-1150.31885	-20.54012	983.76123	-894.48328	0.38353	976.63635	-1051.91003	-223.26231	1031.13062	-937.46185	-219.68681	1030.52197	-1175.46509	-108.07653	670.64368	-1131.59180	-154.14081	472.43015	-1116.35327	-227.68059	291.39746	-1065.98621	-241.22173	70.88193	-1011.37109	-275.01086	45.31964	-1091.82288	-87.77795	33.07122	-800.83868	-10.91022	683.21936	-829.24957	54.80674	485.09335	-815.87280	47.85131	298.39798	-839.90094	68.73563	105.10987	-898.76526	52.68861	43.76615	-812.84235	224.32922	74.56284	-992.00812	-154.91624	1786.69519	-3360.34570	2845.29858	1034.12744			 
